<svg xmlns="http://www.w3.org/2000/svg" xmlns:xlink="http://www.w3.org/1999/xlink" width="228" height="74" viewBox="0 0 228 74">
    <defs>
        <path id="a" d="M6 0h222v74H0V6a6 6 0 0 1 6-6z"/>
    </defs>
    <g fill="none" fill-rule="evenodd">
        <mask id="b" fill="#fff">
            <use xlink:href="#a"/>
        </mask>
        <use fill="#278697" xlink:href="#a"/>
        <g fill="#FFF" mask="url(#b)" opacity=".15">
            <path d="M203.886 52.637a.856.856 0 1 1 1.581-.656c.793 1.907 2.754 3.14 4.999 3.14 2.194 0 4.144-1.234 4.97-3.141a.854.854 0 1 1 1.57.678c-1.097 2.535-3.664 4.173-6.54 4.173-2.94 0-5.521-1.645-6.58-4.194m.316-6.375a2.485 2.485 0 0 1 2.484-2.482 2.485 2.485 0 0 1 2.482 2.482.714.714 0 0 1-1.426 0 1.057 1.057 0 0 0-2.113 0 .713.713 0 1 1-1.427 0m7.909.007a2.486 2.486 0 0 1 2.482-2.482 2.485 2.485 0 0 1 2.482 2.482.713.713 0 1 1-1.426 0 1.057 1.057 0 0 0-2.112 0 .713.713 0 1 1-1.426 0m-11.742-6.84c5.497-5.496 14.44-5.497 19.937.001 5.496 5.496 5.496 14.441-.001 19.936-5.495 5.497-14.439 5.497-19.936.002-5.498-5.497-5.496-14.442 0-19.94m20.78 20.782c5.901-5.9 5.901-15.501.001-21.401-5.901-5.901-15.502-5.901-21.402-.001-5.901 5.901-5.901 15.502 0 21.403 5.9 5.9 15.501 5.9 21.4-.001"/>
        </g>
        <g fill="#FFF" mask="url(#b)" opacity=".15">
            <path d="M98.433 74.12a2.25 2.25 0 1 0-1.9 4.081 2.25 2.25 0 0 0 1.9-4.08m-12.82 9.745a18.46 18.46 0 0 1-3.664-2.269 1.527 1.527 0 0 0-.849-.322l-6.66-.372 2.73-3.465c.35-.443.42-1.046.182-1.559-1.469-3.163-1.561-6.44-.262-9.228 2.797-5.996 11.17-8.031 18.666-4.536 7.496 3.495 11.32 11.218 8.524 17.215-2.797 5.996-11.17 8.032-18.667 4.536m10.777-23.11c-8.258-3.852-17.509-1.495-20.66 5.261-1.545 3.315-1.327 7.07.262 10.493l-4.515 5.73 9.539.533a19.994 19.994 0 0 0 3.964 2.453c8.258 3.85 17.508 1.496 20.659-5.262 3.15-6.757-.99-15.358-9.249-19.209m-4.754 10.196a2.25 2.25 0 1 0-1.901 4.08 2.25 2.25 0 0 0 1.9-4.08m-6.797-3.17a2.25 2.25 0 1 0-1.9 4.081 2.25 2.25 0 0 0 1.9-4.08"/>
        </g>
        <g fill="#FFF" mask="url(#b)" opacity=".15">
            <path d="M30.649 12.635L20.05 16.917c-.454.184-.938.043-1.083-.314-.144-.357.107-.795.56-.978l9.777-3.95-2.015-4.987c-.158-.39-.604-.613-1.12-.562-.322.094-1.643.595-1.968.727-.454.183-.939.042-1.083-.315-.144-.356.107-.794.56-.978.02-.008 2.023-.807 2.465-.865 1.28-.165 2.401.369 2.79 1.33l2.275 5.632c.144.357-.107.795-.56.978M4.722 23.11l-2.579 1.042c-.453.184-.938.043-1.082-.314l-2.276-5.633c-.496-1.226.37-2.736 1.928-3.366l3.36-1.357c.453-.183.938-.042 1.082.314.144.357-.107.795-.56.978l-3.36 1.358c-.653.263-1.015.896-.807 1.41l2.015 4.986 1.756-.71c.454-.183.939-.042 1.083.315.144.357-.107.794-.56.978"/>
            <path d="M31.455 26.807l-19.653 7.94c-1.357.549-2.81.127-3.242-.94L4.135 22.853c-.145-.357.106-.795.56-.978.454-.183.938-.043 1.082.314l4.426 10.955c.143.354.626.493 1.077.311l19.653-7.94c.45-.182.7-.618.557-.972l-4.062-10.052c-.144-.357.107-.795.56-.978.454-.184.939-.043 1.083.314l4.062 10.053c.43 1.066-.322 2.38-1.678 2.927"/>
            <path d="M5.63 17.458c.323 1.3 1.67 2.374 3.281 2.615.59.088 1.343.09 2.223-.147-1.09-.047-2.127-.344-2.936-.965-.819-.629-1.233-1.533-1.165-2.547.069-1.039.631-2.065 1.583-2.889 1.61-1.395 4.078-1.642 5.5-.55.58.445.873 1.087.826 1.807-.05.735-.446 1.46-1.119 2.043-.358.31-.902.356-1.216.101-.313-.254-.276-.711.082-1.022.32-.277.509-.618.531-.961a.933.933 0 0 0-.376-.823c-.794-.61-2.182-.464-3.094.326-.6.519-.953 1.16-.996 1.807a1.77 1.77 0 0 0 .715 1.562c1.408 1.081 3.971.742 5.482-.255 1.462-.964 2.464-3.144 1.619-4.617a.495.495 0 0 1-.018-.033c-1.075-2.199-4.176-3.009-7.06-1.843-2.778 1.122-4.365 3.75-3.862 6.39m6.785 3.501c-1.368.553-2.752.745-4.07.547-2.202-.33-3.974-1.756-4.41-3.549l-.006-.026c-.645-3.342 1.428-6.696 5.041-8.156 3.748-1.514 7.779-.466 9.186 2.386 1.21 2.135-.233 5.13-2.291 6.488l-.074.047a.89.89 0 0 1-.247.326c-1.006.856-2.062 1.506-3.129 1.937"/>
            <path d="M18 9.71a4.79 4.79 0 0 0 .493-.082c1.383-.306 2.749-1.248 3.327-2.296.828-1.68.696-3.812-1.551-4.542-2.013-.655-4.763.248-6.13 2.012a.674.674 0 0 1-.027.034c-.995 1.167-.723 2.709.184 3.308.965.637 2.927.683 4.307-.262.495-.338.82-.782.918-1.25a1.234 1.234 0 0 0-.353-1.168c-.511-.501-1.537-.491-2.288.022-.399.273-.933.254-1.193-.04-.261-.295-.15-.754.249-1.027 1.499-1.025 3.571-1.027 4.616-.003.606.593.842 1.385.666 2.23-.181.872-.774 1.69-1.67 2.303A6.182 6.182 0 0 1 18 9.71m1.85.949a7.516 7.516 0 0 1-1.191.372c-2.046.45-3.966-.058-5.408-1.434a.558.558 0 0 1-.155-.256c-1.44-.954-1.93-3.318-.343-5.199 1.899-2.434 5.564-3.629 8.357-2.72 2.738.89 3.675 3.474 2.278 6.285a.55.55 0 0 1-.014.026c-.667 1.223-2.004 2.312-3.524 2.926"/>
            <path d="M6.378 12.052a1.03 1.03 0 0 1-.617.056c-2.182-.516-5.926-2.004-6.488-6.166-.036-.263.113-.545.384-.731.168-.115 4.145-2.798 8.286-2.38 2.522.256 4.515 1.593 5.924 3.974.197.333.005.784-.429 1.008-.432.224-.944.136-1.14-.196-1.192-2.013-2.819-3.138-4.835-3.342-2.659-.27-5.348 1.102-6.4 1.717.625 2.97 3.257 4.202 5.41 4.711.433.103.625.5.43.889-.106.207-.3.37-.525.46"/>
        </g>
        <g fill="#FFF" mask="url(#b)" opacity=".15">
            <path d="M176.364 14.772l-7.795-8.359c-.334-.358-.376-.86-.095-1.123.282-.263.78-.186 1.114.172l7.191 7.712 3.934-3.668c.308-.288.355-.785.123-1.248-.203-.267-1.144-1.32-1.384-1.577-.333-.358-.376-.86-.094-1.123.281-.262.78-.185 1.114.173.014.015 1.478 1.598 1.69 1.99.614 1.137.517 2.374-.24 3.08l-4.444 4.144c-.282.263-.78.185-1.114-.173"/>
            <path d="M163.422 20.604L148.967 5.102c-.998-1.07-1.126-2.579-.284-3.363l8.64-8.058c.282-.263.78-.185 1.114.173.334.358.376.86.095 1.123l-8.641 8.058c-.28.26-.237.76.095 1.116l14.456 15.502c.33.355.827.432 1.106.172l7.93-7.394c.282-.263.78-.186 1.114.172.334.358.376.86.094 1.123l-7.93 7.395c-.84.784-2.336.552-3.334-.517"/>
            <path d="M162.896-6.857c-1.097.768-1.618 2.41-1.266 4.001.13.582.398 1.286.934 2.022-.346-1.033-.44-2.109-.15-3.087.292-.989.988-1.7 1.96-2 .994-.308 2.153-.15 3.263.443 1.88 1.004 2.995 3.219 2.486 4.936a2.049 2.049 0 0 1-1.392 1.42c-.704.217-1.523.107-2.308-.312-.418-.223-.656-.715-.53-1.099.124-.384.565-.513.983-.29.373.2.76.253 1.088.151a.933.933 0 0 0 .634-.646c.284-.96-.35-2.203-1.414-2.772-.699-.373-1.425-.473-2.044-.282a1.77 1.77 0 0 0-1.202 1.228c-.504 1.702.73 3.973 2.202 5.026 1.425 1.02 3.819 1.174 4.892-.143a.495.495 0 0 1 .024-.028c1.667-1.792 1.312-4.977-.809-7.252-2.044-2.192-5.065-2.732-7.35-1.316m-.837 7.59c-1.006-1.08-1.682-2.303-1.97-3.605-.481-2.173.215-4.339 1.733-5.388l.022-.015c2.89-1.8 6.763-1.067 9.421 1.784 2.757 2.956 3.223 7.094 1.065 9.43-1.56 1.895-4.872 1.62-6.878.186a23.113 23.113 0 0 1-.071-.052.89.89 0 0 1-.393-.113c-1.159-.633-2.145-1.386-2.93-2.227"/>
            <path d="M174.562 1.916c.076.145.16.289.254.43.78 1.182 2.15 2.12 3.336 2.284 1.864.171 3.808-.717 3.684-3.076-.11-2.114-1.939-4.358-4.076-5.002a.674.674 0 0 1-.04-.014c-1.447-.51-2.789.297-3.023 1.359-.25 1.129.41 2.977 1.788 3.926.493.341 1.024.486 1.496.41.444-.073.786-.339.964-.748.285-.658-.092-1.612-.84-2.13-.398-.274-.573-.779-.391-1.127.182-.35.65-.41 1.048-.136 1.494 1.033 2.24 2.966 1.657 4.31-.336.776-.99 1.281-1.843 1.42-.88.143-1.855-.118-2.748-.734a6.182 6.182 0 0 1-1.266-1.172m-.222 2.068a7.516 7.516 0 0 1-.774-.98c-1.155-1.747-1.368-3.723-.6-5.561a.558.558 0 0 1 .183-.237c.376-1.686 2.407-2.992 4.73-2.184 2.954.9 5.383 3.895 5.536 6.827.15 2.876-1.926 4.677-5.051 4.38a.55.55 0 0 1-.03-.004c-1.38-.184-2.877-1.042-3.994-2.241"/>
        </g>
    </g>
</svg>
